<?xml version="1.0" encoding="UTF-8"?>
<svg xmlns="http://www.w3.org/2000/svg" xmlns:xlink="http://www.w3.org/1999/xlink" width="246" height="49" viewBox="0 0 246 49">
  <defs>
    <clipPath id="clip-path">
      <rect id="Rectangle_112" data-name="Rectangle 112" width="246" height="49" transform="translate(0 -0.299)" fill="#fff"></rect>
    </clipPath>
  </defs>
  <g id="Group_125" data-name="Group 125" transform="translate(0 0.299)">
    <g id="Group_33" data-name="Group 33" clip-path="url(#clip-path)">
      <path id="Path_88" data-name="Path 88" d="M35,5.7a21.768,21.768,0,0,0-15-6,19.424,19.424,0,0,0-14,6,21.724,21.724,0,0,0-6,15,19.413,19.413,0,0,0,6,14l14,14,3-3L9,31.7c-3.079-3.079-5-6.646-5-11a17.529,17.529,0,0,1,5-12c3.079-3.079,6.646-5,11-5a17.529,17.529,0,0,1,12,5,16.26,16.26,0,0,1,0,23l-6,6-11-12c-1.484-1.484-3-2.9-3-5s1.516-4.516,3-6a6.323,6.323,0,0,1,5-2c2.1,0,4.516.516,6,2s2,3.9,2,6a6.323,6.323,0,0,1-2,5l-3,3,3,2,3-2a10.512,10.512,0,0,0,3-8c0-3.163-.764-6.764-3-9s-5.837-3-9-3a10.512,10.512,0,0,0-8,3,13.816,13.816,0,0,0-4,9c0,3.163,1.764,5.764,4,8l14,14,9-8a20.68,20.68,0,0,0,0-29h0" fill="#58caee"></path>
      <path id="Path_89" data-name="Path 89" d="M74.56,4.082h16c.2,0-.1.826,0,1l18,30h0l-1-30a1.587,1.587,0,0,1,1-1h9a1.619,1.619,0,0,1,1,1v44c0,.307-.693,0-1,0h-12c-.2,0-.9.174-1,0l-20-34h0v34c0,.307.307,0,0,0h-10c-.307,0,0,.307,0,0v-44c0-.307-.307-1,0-1Z" transform="translate(-22.56 -1.38)" fill="#fff"></path>
      <path id="Path_90" data-name="Path 90" d="M146.373,4.082h31a1.619,1.619,0,0,1,1,1v8c0,.307-.693,0-1,0h-19a1.619,1.619,0,0,0-1,1v9c0,.307.694,0,1,0h14a1.619,1.619,0,0,1,1,1v6c0,.307-.694,0-1,0h-14a1.619,1.619,0,0,0-1,1v9a1.619,1.619,0,0,0,1,1h20c.306,0,0-.307,0,0v8c0,.307.306,0,0,0h-32c-.307,0,0,.307,0,0v-44c0-.307-.307-1,0-1Z" transform="translate(-44.373 -1.38)" fill="#fff"></path>
      <path id="Path_91" data-name="Path 91" d="M200.783,4.082h17c.244,0-.07.763,0,1l10,29h0l9-29c.077-.23.756-1,1-1h16c.306,0,0,.693,0,1v44c0,.307.306,0,0,0h-10c-.307,0-1,.313-1,0v-35h0l-11,35c-.077.23.244,0,0,0h-9c-.244,0-.93.23-1,0l-11-35h0v35c0,.307.307,0,0,0h-10c-.307,0,0,.307,0,0v-44C200.783,4.775,200.476,4.082,200.783,4.082Z" transform="translate(-60.783 -1.38)" fill="#fff"></path>
      <path id="Path_92" data-name="Path 92" d="M316.181,40.084h-17c-.237,0-.923.77-1,1l-3,8c-.077.23.237,0,0,0h-11c-.39,0-.139.369,0,0l17-44c.084-.216-.23-1,0-1h13c.23,0,.916.784,1,1l17,44c.139.362-.6,0-1,0h-11c-.237,0-.923.23-1,0l-3-8c-.077-.23.237-1,0-1Zm-3-7c.383,0,1.118.362,1,0l-7-19h0l-6,19c-.118.362-.383,0,0,0Z" transform="translate(-86.181 -1.383)" fill="#fff"></path>
    </g>
  </g>
</svg>
